<svg width="155" height="76" viewBox="0 0 155 76" fill="none" xmlns="http://www.w3.org/2000/svg">
<path d="M77.1884 38.2614V23.0124H84.0353V16.3354H77.2334V4.19944H68.855V16.3354H64.1252H62.6387H57.0982V11.7788C57.0982 8.80118 59.0802 7.3575 61.6477 7.3575C62.5937 7.3575 63.4496 7.49284 63.9901 7.71842V1.13161C63.1793 0.860921 61.6477 0.5 59.5306 0.5C53.0441 0.5 48.7197 4.51525 48.7197 12.5006V16.3805V23.0576V49.9913H57.0982V23.0124H62.6387H64.1252H68.855V39.4795C68.855 46.9686 72.6388 50.5778 79.801 50.5778C81.9181 50.5778 83.9452 50.2169 84.756 49.9462V43.6301C83.9452 43.7654 83.0443 43.8556 82.1884 43.8556C78.5848 43.8556 77.1884 41.7803 77.1884 38.2614Z" fill="#172352"/>
<path d="M91.9182 12.5458C94.3314 12.5458 96.2876 10.5865 96.2876 8.16962C96.2876 5.75273 94.3314 3.79346 91.9182 3.79346C89.5051 3.79346 87.5488 5.75273 87.5488 8.16962C87.5488 10.5865 89.5051 12.5458 91.9182 12.5458Z" fill="#172352"/>
<path d="M96.1079 16.3354H87.7295V49.9462H96.1079V16.3354Z" fill="#172352"/>
<path d="M40.5217 3.79346C38.0893 3.79346 36.1523 5.77852 36.1523 8.16962C36.1523 10.5607 38.1343 12.5458 40.5217 12.5458C42.9091 12.5458 44.8911 10.5607 44.8911 8.16962C44.8911 5.77852 42.9091 3.79346 40.5217 3.79346Z" fill="#172352"/>
<path d="M36.3327 40.4266C36.3327 46.1562 35.0714 47.7353 33.8101 48.5022C33.2245 48.8631 32.5038 49.1338 31.738 49.3594V16.3802H23.3596V18.8165C20.9271 16.8314 17.8641 15.6133 14.4857 15.6133C6.55767 15.6133 0.161234 22.2452 0.161234 30.4562C0.161234 38.6671 6.55767 45.299 14.4857 45.299C17.8641 45.299 20.9271 44.0809 23.4046 42.0959V42.1861C23.4046 45.2539 23.4046 48.5473 23.4046 49.3143C23.1794 49.2692 22.9542 49.2692 22.729 49.224C20.0713 48.8631 17.3235 48.4571 14.3956 48.6376C8.80994 48.9534 4.21532 51.3896 1.78287 55.3597C-1.37031 60.4577 -0.244174 67.5408 4.3955 71.7816C7.14326 74.3532 10.9721 75.7066 14.9361 75.7066C16.6028 75.7066 18.3145 75.4359 19.9812 74.9397C23.1344 73.9471 25.792 72.1876 27.6389 69.7514C29.756 66.9994 30.6119 63.8414 31.0623 60.8638C30.4768 60.8638 29.8912 60.9089 29.2605 60.9089C27.1884 60.9089 25.0263 60.7735 22.774 60.5479C22.4587 62.0819 22.0082 63.6158 21.1524 64.6985C20.3415 65.7362 19.0352 66.5934 17.5037 67.0445C14.801 67.9017 11.7379 67.3603 9.93608 65.6911C8.22435 64.112 7.72885 61.36 8.7649 59.6456C9.93608 57.7508 12.6388 56.9839 14.846 56.8485C16.2875 56.7583 17.774 56.8936 19.3055 57.0741C20.5217 57.2545 21.783 57.3899 22.9992 57.5252C25.2965 57.7508 27.5038 57.8862 29.6209 57.8862C30.2515 57.8862 30.8371 57.841 31.4678 57.841C34.0353 57.5252 36.2876 56.8034 38.2246 55.6304C44.1705 52.0212 44.8462 45.2539 44.8462 40.5168V16.3351H36.3327V40.4266ZM16.1073 37.3588C12.3685 37.3588 9.30544 34.3361 9.30544 30.5915C9.30544 26.8469 12.3685 23.8242 16.1073 23.8242C19.8461 23.8242 22.9091 26.8469 22.9091 30.5915C22.9091 34.3361 19.8461 37.3588 16.1073 37.3588Z" fill="#172352"/>
<path d="M146.964 41.8255C146.964 47.3295 145.613 48.8634 144.396 49.5853C143.811 49.9462 143.495 50.0815 142.73 50.3071V49.1792V30.9527V16.3354H134.757V30.0955V30.5016C134.757 30.5016 134.802 35.3289 129.712 35.374C124.576 35.2838 124.667 30.5016 124.667 30.5016V30.0955V16.3354H117.234H115.657H108.63V11.7788C108.63 8.80118 110.612 7.3575 113.18 7.3575C114.126 7.3575 114.982 7.49284 115.522 7.71842V1.13161C114.712 0.860921 113.18 0.5 111.063 0.5C104.576 0.5 100.252 4.51525 100.252 12.5006V16.3805V23.0576V49.9913H108.63V23.0124H115.657H116.694V30.9076L116.739 31.5843C116.739 31.5843 116.603 43.991 129.802 44.2166C131.604 44.1714 133.135 43.9007 134.486 43.4947V46.2467V47.3746V50.3522H134.441C134.216 50.3071 133.991 50.3071 133.766 50.262C131.198 49.9011 128.54 49.5401 125.748 49.6755C120.387 49.9913 115.973 52.3373 113.63 56.1269C110.612 61.0445 111.693 67.8118 116.153 71.9172C118.811 74.3535 122.504 75.7069 126.288 75.7069C127.91 75.7069 129.531 75.4813 131.108 74.9851C134.126 74.0377 136.694 72.3233 138.495 70.0224C140.523 67.4057 141.378 64.3379 141.784 61.4505C141.198 61.4505 140.658 61.4956 140.072 61.4956C138.09 61.4956 136.018 61.4054 133.811 61.1798C133.54 62.6686 133.09 64.1123 132.234 65.15C131.468 66.1425 130.207 66.9546 128.721 67.4057C126.108 68.2178 123.18 67.6764 121.468 66.0974C119.847 64.6086 119.351 61.9468 120.342 60.2775C121.468 58.4729 124.081 57.706 126.153 57.5706C127.504 57.4804 128.946 57.6157 130.432 57.7962C131.604 57.9315 132.775 58.112 133.991 58.2022C136.198 58.4278 138.315 58.5632 140.342 58.5632C140.928 58.5632 141.514 58.5181 142.099 58.5181C144.577 58.2022 146.739 57.5255 148.586 56.3976C154.306 52.9238 154.937 46.4272 154.937 41.8706H146.964V41.8255Z" fill="#172352"/>
</svg>
